<?xml version="1.0" encoding="utf-8"?>
<!-- Generator: Adobe Illustrator 19.0.0, SVG Export Plug-In . SVG Version: 6.00 Build 0)  -->
<svg version="1.1" id="Layer_1" xmlns="http://www.w3.org/2000/svg" xmlns:xlink="http://www.w3.org/1999/xlink" x="0px" y="0px"
	 viewBox="0 0 19.1 17.5" style="enable-background:new 0 0 19.1 17.5;" xml:space="preserve">
<style type="text/css">
	.st0{fill:#FFFFFF;}
</style>
<g id="XMLID_4009_">
	<path id="XMLID_4015_" class="st0" d="M9.6,1.4c-4,0-7.3,3.3-7.3,7.3c0,4,3.3,7.3,7.3,7.3s7.3-3.3,7.3-7.3
		C16.9,4.7,13.6,1.4,9.6,1.4z M13.8,11.1c0,1.1-0.9,1.9-1.9,1.9H7.2c-1.1,0-1.9-0.9-1.9-1.9V6.4c0-1.1,0.9-1.9,1.9-1.9h4.7
		c1.1,0,1.9,0.9,1.9,1.9V11.1z"/>
	<path id="XMLID_4011_" class="st0" d="M11.9,5.3H7.2c-0.6,0-1.1,0.5-1.1,1.1v4.7c0,0.6,0.5,1.1,1.1,1.1h4.7c0.6,0,1.1-0.5,1.1-1.1
		V6.4C13,5.8,12.5,5.3,11.9,5.3z M9.6,11c-1.2,0-2.2-1-2.2-2.2c0-1.2,1-2.2,2.2-2.2c1.2,0,2.2,1,2.2,2.2C11.8,10,10.8,11,9.6,11z
		 M11.8,7.1c-0.3,0-0.6-0.3-0.6-0.6c0-0.3,0.3-0.6,0.6-0.6c0.3,0,0.6,0.3,0.6,0.6C12.4,6.9,12.2,7.1,11.8,7.1z"/>
	<circle id="XMLID_4010_" class="st0" cx="9.6" cy="8.8" r="1.4"/>
</g>
</svg>
