<?xml version="1.0" encoding="utf-8"?>
<!-- Generator: Adobe Illustrator 19.0.0, SVG Export Plug-In . SVG Version: 6.00 Build 0)  -->
<svg version="1.1" id="Layer_1" xmlns="http://www.w3.org/2000/svg" xmlns:xlink="http://www.w3.org/1999/xlink" x="0px" y="0px"
	 viewBox="0 0 19.1 17.5" style="enable-background:new 0 0 19.1 17.5;" xml:space="preserve">
<style type="text/css">
	.st0{fill:#FFFFFF;}
</style>
<path id="XMLID_4006_" class="st0" d="M9.6,1.5c-4,0-7.3,3.2-7.3,7.3c0,4,3.2,7.3,7.3,7.3c4,0,7.3-3.2,7.3-7.3
	C16.8,4.7,13.6,1.5,9.6,1.5z M11.5,8.1l-0.1,0.7h-1.3c0,1.9,0,4.3,0,4.3H8.4c0,0,0-2.3,0-4.3H7.5V8.1V7h0.9V6.3
	c0-0.7,0.3-1.8,1.8-1.8l1.3,0v1.5c0,0-0.8,0-1,0c-0.2,0-0.4,0.1-0.4,0.4V7h1.4L11.5,8.1z"/>
</svg>
