<?xml version="1.0" encoding="utf-8"?>
<!-- Generator: Adobe Illustrator 22.0.0, SVG Export Plug-In . SVG Version: 6.00 Build 0)  -->
<svg version="1.1" id="Layer_1" xmlns="http://www.w3.org/2000/svg" xmlns:xlink="http://www.w3.org/1999/xlink" x="0px" y="0px"
	 viewBox="0 0 174.5 38.8" style="enable-background:new 0 0 174.5 38.8;" xml:space="preserve">
<style type="text/css">
	.st0{fill:#21AF5A;}
	.st1{fill:#FFFFFF;}
</style>
<g>
	<path class="st0" d="M155.1,38.8c10.7,0,19.4-8.7,19.4-19.4S165.8,0,155.1,0H19.4C8.7,0,0,8.7,0,19.4s8.7,19.4,19.4,19.4H155.1z"/>
	<g>
		<path id="WhatsApp_4_" class="st1" d="M168,19c0,7.8-6.4,14.1-14.2,14.1c-2.5,0-4.8-0.6-6.9-1.8l-7.9,2.5l2.6-7.6
			c-1.3-2.1-2-4.6-2-7.3c0-7.8,6.4-14.1,14.2-14.1C161.6,4.9,168,11.2,168,19z M153.8,7.1c-6.6,0-12,5.3-12,11.9c0,2.6,0.8,5,2.3,7
			l-1.5,4.4l4.6-1.5c1.9,1.2,4.2,2,6.6,2c6.6,0,12-5.3,12-11.9S160.4,7.1,153.8,7.1z M161,22.3c-0.1-0.1-0.3-0.2-0.7-0.4
			c-0.3-0.2-2.1-1-2.4-1.1c-0.3-0.1-0.6-0.2-0.8,0.2c-0.2,0.3-0.9,1.1-1.1,1.4c-0.2,0.2-0.4,0.3-0.8,0.1c-0.3-0.2-1.5-0.5-2.8-1.7
			c-1-0.9-1.7-2.1-1.9-2.4c-0.2-0.3,0-0.5,0.2-0.7c0.2-0.2,0.3-0.4,0.5-0.6c0.2-0.2,0.2-0.3,0.3-0.6c0.1-0.2,0.1-0.4,0-0.6
			c-0.1-0.2-0.8-1.9-1.1-2.6c-0.3-0.7-0.6-0.6-0.8-0.6c-0.2,0-0.4,0-0.7,0c-0.2,0-0.6,0.1-0.9,0.4c-0.3,0.3-1.2,1.2-1.2,2.9
			c0,1.7,1.2,3.4,1.4,3.6c0.2,0.2,2.4,3.8,6,5.2c3.5,1.4,3.5,0.9,4.2,0.9c0.6-0.1,2.1-0.8,2.4-1.6C161,23.1,161,22.4,161,22.3z"/>
	</g>
	<g>
		<path class="st1" d="M22.5,24.9l-0.9-3.1h-4.7l-0.9,3.1H13L17.5,12h3.3l4.6,12.9H22.5z M20.9,19.6c-0.9-2.8-1.3-4.3-1.5-4.7
			c-0.1-0.4-0.2-0.7-0.2-0.9c-0.2,0.8-0.7,2.6-1.7,5.6H20.9z"/>
		<path class="st1" d="M31,22.9c0.5,0,1-0.1,1.7-0.3v2c-0.7,0.3-1.5,0.4-2.5,0.4c-1.1,0-1.9-0.3-2.3-0.8s-0.7-1.4-0.7-2.4v-4.7h-1.3
			V16l1.5-0.9l0.8-2.1h1.7v2.1h2.8v2h-2.8v4.7c0,0.4,0.1,0.7,0.3,0.8S30.6,22.9,31,22.9z"/>
		<path class="st1" d="M39.1,25.1c-1.6,0-2.8-0.4-3.7-1.3S34,21.7,34,20.1c0-1.6,0.4-2.9,1.2-3.8c0.8-0.9,2-1.3,3.4-1.3
			c1.4,0,2.5,0.4,3.2,1.2c0.8,0.8,1.2,1.9,1.2,3.3v1.3h-6.3c0,0.8,0.3,1.4,0.7,1.8s1,0.6,1.8,0.6c0.6,0,1.2-0.1,1.7-0.2
			s1.1-0.3,1.7-0.6v2.1c-0.5,0.2-1,0.4-1.5,0.5C40.5,25,39.9,25.1,39.1,25.1z M38.7,16.8c-0.6,0-1,0.2-1.3,0.5
			c-0.3,0.4-0.5,0.9-0.6,1.5h3.8c0-0.7-0.2-1.2-0.5-1.5C39.7,17,39.3,16.8,38.7,16.8z"/>
		<path class="st1" d="M54.3,24.9h-2.7v-5.7c0-0.7-0.1-1.2-0.4-1.6S50.6,17,50.1,17c-0.8,0-1.3,0.3-1.6,0.8
			c-0.3,0.5-0.5,1.3-0.5,2.5v4.6h-2.7v-9.8h2l0.4,1.3h0.1c0.3-0.5,0.7-0.8,1.2-1.1c0.5-0.2,1.1-0.4,1.8-0.4c1.1,0,2,0.3,2.6,0.9
			c0.6,0.6,0.9,1.5,0.9,2.7V24.9z"/>
		<path class="st1" d="M60.2,25.1c-1.2,0-2.1-0.4-2.7-1.3c-0.7-0.9-1-2.1-1-3.7c0-1.6,0.3-2.9,1-3.8c0.7-0.9,1.6-1.3,2.8-1.3
			c1.2,0,2.2,0.5,2.8,1.4h0.1c-0.1-0.7-0.2-1.4-0.2-2v-3.1h2.7v13.7h-2.1l-0.5-1.3H63C62.4,24.6,61.5,25.1,60.2,25.1z M61.2,22.9
			c0.7,0,1.2-0.2,1.5-0.6s0.5-1.1,0.5-2V20c0-1.1-0.2-1.8-0.5-2.3c-0.3-0.5-0.9-0.7-1.6-0.7c-0.6,0-1.1,0.3-1.4,0.8
			c-0.3,0.5-0.5,1.2-0.5,2.2s0.2,1.7,0.5,2.2C60.1,22.7,60.5,22.9,61.2,22.9z"/>
		<path class="st1" d="M68.4,12.5c0-0.9,0.5-1.3,1.5-1.3s1.5,0.4,1.5,1.3c0,0.4-0.1,0.7-0.4,1c-0.2,0.2-0.6,0.3-1.1,0.3
			C68.9,13.9,68.4,13.4,68.4,12.5z M71.2,24.9h-2.7v-9.8h2.7V24.9z"/>
		<path class="st1" d="M82.8,24.9h-2.7v-5.7c0-0.7-0.1-1.2-0.4-1.6c-0.2-0.4-0.6-0.5-1.1-0.5c-0.7,0-1.2,0.3-1.5,0.8
			s-0.5,1.3-0.5,2.5v4.6H74v-9.8h2l0.4,1.3h0.1c0.3-0.5,0.6-0.8,1.1-1.1c0.5-0.3,1.1-0.4,1.7-0.4c1.5,0,2.5,0.5,3,1.4h0.2
			c0.3-0.5,0.7-0.8,1.2-1.1c0.5-0.3,1.1-0.4,1.7-0.4c1.1,0,2,0.3,2.5,0.9c0.6,0.6,0.9,1.5,0.9,2.7v6.4h-2.7v-5.7
			c0-0.7-0.1-1.2-0.4-1.6c-0.2-0.4-0.6-0.5-1.1-0.5c-0.7,0-1.1,0.2-1.5,0.7c-0.3,0.5-0.5,1.2-0.5,2.2V24.9z"/>
		<path class="st1" d="M96.1,25.1c-1.6,0-2.8-0.4-3.7-1.3s-1.3-2.1-1.3-3.7c0-1.6,0.4-2.9,1.2-3.8c0.8-0.9,2-1.3,3.4-1.3
			c1.4,0,2.5,0.4,3.2,1.2c0.8,0.8,1.2,1.9,1.2,3.3v1.3h-6.3c0,0.8,0.3,1.4,0.7,1.8s1,0.6,1.8,0.6c0.6,0,1.2-0.1,1.7-0.2
			s1.1-0.3,1.7-0.6v2.1c-0.5,0.2-1,0.4-1.5,0.5C97.5,25,96.9,25.1,96.1,25.1z M95.7,16.8c-0.6,0-1,0.2-1.3,0.5
			c-0.3,0.4-0.5,0.9-0.6,1.5h3.8c0-0.7-0.2-1.2-0.5-1.5C96.8,17,96.3,16.8,95.7,16.8z"/>
		<path class="st1" d="M111.4,24.9h-2.7v-5.7c0-0.7-0.1-1.2-0.4-1.6s-0.7-0.5-1.2-0.5c-0.8,0-1.3,0.3-1.6,0.8
			c-0.3,0.5-0.5,1.3-0.5,2.5v4.6h-2.7v-9.8h2l0.4,1.3h0.1c0.3-0.5,0.7-0.8,1.2-1.1c0.5-0.2,1.1-0.4,1.8-0.4c1.1,0,2,0.3,2.6,0.9
			c0.6,0.6,0.9,1.5,0.9,2.7V24.9z"/>
		<path class="st1" d="M118.3,22.9c0.5,0,1-0.1,1.7-0.3v2c-0.7,0.3-1.5,0.4-2.5,0.4c-1.1,0-1.9-0.3-2.3-0.8s-0.7-1.4-0.7-2.4v-4.7
			h-1.3V16l1.5-0.9l0.8-2.1h1.7v2.1h2.8v2h-2.8v4.7c0,0.4,0.1,0.7,0.3,0.8S117.9,22.9,118.3,22.9z"/>
		<path class="st1" d="M130.9,20c0,1.6-0.4,2.9-1.3,3.8s-2,1.4-3.5,1.4c-0.9,0-1.8-0.2-2.5-0.6c-0.7-0.4-1.3-1-1.7-1.8
			s-0.6-1.7-0.6-2.7c0-1.6,0.4-2.9,1.3-3.7c0.8-0.9,2-1.3,3.5-1.3c0.9,0,1.8,0.2,2.5,0.6s1.3,1,1.7,1.8S130.9,18.9,130.9,20z
			 M124.1,20c0,1,0.2,1.7,0.5,2.2c0.3,0.5,0.8,0.7,1.6,0.7c0.7,0,1.2-0.2,1.5-0.7c0.3-0.5,0.5-1.2,0.5-2.2c0-1-0.2-1.7-0.5-2.2
			s-0.8-0.7-1.6-0.7c-0.7,0-1.2,0.2-1.5,0.7C124.2,18.3,124.1,19,124.1,20z"/>
	</g>
</g>
</svg>
